<svg id="visual" viewBox="0 0 900 600" width="900" height="600" xmlns="http://www.w3.org/2000/svg" xmlns:xlink="http://www.w3.org/1999/xlink" version="1.1"><rect x="0" y="0" width="900" height="600" fill="#2d2f30"></rect><path d="M555 600L556.8 585.7C558.7 571.3 562.3 542.7 580 514.2C597.7 485.7 629.3 457.3 632.2 428.8C635 400.3 609 371.7 593.3 343C577.7 314.3 572.3 285.7 571.3 257C570.3 228.3 573.7 199.7 583.7 171.2C593.7 142.7 610.3 114.3 622.3 85.8C634.3 57.3 641.7 28.7 645.3 14.3L649 0L900 0L900 14.3C900 28.7 900 57.3 900 85.8C900 114.3 900 142.7 900 171.2C900 199.7 900 228.3 900 257C900 285.7 900 314.3 900 343C900 371.7 900 400.3 900 428.8C900 457.3 900 485.7 900 514.2C900 542.7 900 571.3 900 585.7L900 600Z" fill="#236972"></path><path d="M614 600L615.3 585.7C616.7 571.3 619.3 542.7 637.2 514.2C655 485.7 688 457.3 701.8 428.8C715.7 400.3 710.3 371.7 707 343C703.7 314.3 702.3 285.7 694.8 257C687.3 228.3 673.7 199.7 659.7 171.2C645.7 142.7 631.3 114.3 624 85.8C616.7 57.3 616.3 28.7 616.2 14.3L616 0L900 0L900 14.3C900 28.7 900 57.3 900 85.8C900 114.3 900 142.7 900 171.2C900 199.7 900 228.3 900 257C900 285.7 900 314.3 900 343C900 371.7 900 400.3 900 428.8C900 457.3 900 485.7 900 514.2C900 542.7 900 571.3 900 585.7L900 600Z" fill="#0a5163"></path><path d="M713 600L708.2 585.7C703.3 571.3 693.7 542.7 700.8 514.2C708 485.7 732 457.3 734.8 428.8C737.7 400.3 719.3 371.7 709 343C698.7 314.3 696.3 285.7 705.5 257C714.7 228.3 735.3 199.7 739.5 171.2C743.7 142.7 731.3 114.3 727 85.8C722.7 57.3 726.3 28.7 728.2 14.3L730 0L900 0L900 14.3C900 28.7 900 57.3 900 85.8C900 114.3 900 142.7 900 171.2C900 199.7 900 228.3 900 257C900 285.7 900 314.3 900 343C900 371.7 900 400.3 900 428.8C900 457.3 900 485.7 900 514.2C900 542.7 900 571.3 900 585.7L900 600Z" fill="#003951"></path><path d="M791 600L795 585.7C799 571.3 807 542.7 800.8 514.2C794.7 485.7 774.3 457.3 766.7 428.8C759 400.3 764 371.7 759 343C754 314.3 739 285.7 732.3 257C725.7 228.3 727.3 199.7 736.8 171.2C746.3 142.7 763.7 114.3 776.2 85.8C788.7 57.3 796.3 28.7 800.2 14.3L804 0L900 0L900 14.3C900 28.7 900 57.3 900 85.8C900 114.3 900 142.7 900 171.2C900 199.7 900 228.3 900 257C900 285.7 900 314.3 900 343C900 371.7 900 400.3 900 428.8C900 457.3 900 485.7 900 514.2C900 542.7 900 571.3 900 585.7L900 600Z" fill="#02223d"></path><path d="M803 600L806.8 585.7C810.7 571.3 818.3 542.7 816.5 514.2C814.7 485.7 803.3 457.3 804 428.8C804.7 400.3 817.3 371.7 820.3 343C823.3 314.3 816.7 285.7 816.5 257C816.3 228.3 822.7 199.7 823.8 171.2C825 142.7 821 114.3 823.5 85.8C826 57.3 835 28.7 839.5 14.3L844 0L900 0L900 14.3C900 28.7 900 57.3 900 85.8C900 114.3 900 142.7 900 171.2C900 199.7 900 228.3 900 257C900 285.7 900 314.3 900 343C900 371.7 900 400.3 900 428.8C900 457.3 900 485.7 900 514.2C900 542.7 900 571.3 900 585.7L900 600Z" fill="#060826"></path></svg>